<mxfile host="app.diagrams.net" modified="2023-11-09T22:04:17.551Z" agent="Mozilla/5.0 (Windows NT 10.0; Win64; x64) AppleWebKit/537.36 (KHTML, like Gecko) Chrome/119.0.0.0 Safari/537.36" etag="A-oDeQMJ-DGKvQm8hNnT" version="22.1.0" type="google">
  <diagram name="user" id="DcMldlABYQPyjPh-bCcR">
    <mxGraphModel grid="1" page="1" gridSize="10" guides="1" tooltips="1" connect="1" arrows="1" fold="1" pageScale="1" pageWidth="4800" pageHeight="3600" math="0" shadow="0">
      <root>
        <mxCell id="0" />
        <mxCell id="1" parent="0" />
        <mxCell id="qpTNAgfykR-I72aWOtrB-3" value="&lt;font style=&quot;font-size: 24px;&quot;&gt;&lt;b&gt;Select Flight&lt;/b&gt;&lt;/font&gt;" style="ellipse;whiteSpace=wrap;html=1;" vertex="1" parent="1">
          <mxGeometry x="2270" y="1680" width="250" height="120" as="geometry" />
        </mxCell>
        <mxCell id="qpTNAgfykR-I72aWOtrB-5" value="&lt;font style=&quot;font-size: 24px;&quot;&gt;&lt;b&gt;Choose Seat&lt;br&gt;&lt;/b&gt;&lt;/font&gt;" style="ellipse;whiteSpace=wrap;html=1;" vertex="1" parent="1">
          <mxGeometry x="2270" y="1520" width="250" height="120" as="geometry" />
        </mxCell>
        <mxCell id="qpTNAgfykR-I72aWOtrB-6" value="&lt;font style=&quot;font-size: 24px;&quot;&gt;&lt;b&gt;Add Insurance&lt;br&gt;&lt;/b&gt;&lt;/font&gt;" style="ellipse;whiteSpace=wrap;html=1;" vertex="1" parent="1">
          <mxGeometry x="2275" y="1840" width="250" height="120" as="geometry" />
        </mxCell>
        <mxCell id="qpTNAgfykR-I72aWOtrB-7" value="&lt;font style=&quot;font-size: 24px;&quot;&gt;&lt;b&gt;Make Payment&lt;br&gt;&lt;/b&gt;&lt;/font&gt;" style="ellipse;whiteSpace=wrap;html=1;" vertex="1" parent="1">
          <mxGeometry x="2270" y="2000" width="250" height="120" as="geometry" />
        </mxCell>
        <mxCell id="qpTNAgfykR-I72aWOtrB-8" value="&lt;font style=&quot;font-size: 24px;&quot;&gt;&lt;b&gt;Send Notification&lt;br&gt;&lt;/b&gt;&lt;/font&gt;" style="ellipse;whiteSpace=wrap;html=1;" vertex="1" parent="1">
          <mxGeometry x="2650" y="1990" width="250" height="120" as="geometry" />
        </mxCell>
        <mxCell id="qpTNAgfykR-I72aWOtrB-9" value="&lt;font style=&quot;font-size: 24px;&quot;&gt;&lt;b&gt;Receive Promotions&lt;br&gt;&lt;/b&gt;&lt;/font&gt;" style="ellipse;whiteSpace=wrap;html=1;" vertex="1" parent="1">
          <mxGeometry x="2280" y="1000" width="250" height="120" as="geometry" />
        </mxCell>
        <mxCell id="qpTNAgfykR-I72aWOtrB-10" value="&lt;font style=&quot;font-size: 24px;&quot;&gt;&lt;b&gt;Access Lounge&lt;br&gt;&lt;/b&gt;&lt;/font&gt;" style="ellipse;whiteSpace=wrap;html=1;" vertex="1" parent="1">
          <mxGeometry x="2280" y="1160" width="250" height="120" as="geometry" />
        </mxCell>
        <mxCell id="qpTNAgfykR-I72aWOtrB-12" value="&lt;font style=&quot;font-size: 24px;&quot;&gt;&lt;b&gt;Apply for Card&lt;br&gt;&lt;/b&gt;&lt;/font&gt;" style="ellipse;whiteSpace=wrap;html=1;" vertex="1" parent="1">
          <mxGeometry x="2280" y="840" width="250" height="120" as="geometry" />
        </mxCell>
        <mxCell id="qpTNAgfykR-I72aWOtrB-13" value="&lt;font style=&quot;font-size: 24px;&quot;&gt;&lt;b&gt;Register for Membership&lt;br&gt;&lt;/b&gt;&lt;/font&gt;" style="ellipse;whiteSpace=wrap;html=1;" vertex="1" parent="1">
          <mxGeometry x="1870" y="840" width="250" height="120" as="geometry" />
        </mxCell>
        <mxCell id="PWh_q_sZ3vp1fZYRVog8-3" value="&lt;font style=&quot;font-size: 24px;&quot;&gt;&lt;b&gt;Receive Companion Ticket&lt;br&gt;&lt;/b&gt;&lt;/font&gt;" style="ellipse;whiteSpace=wrap;html=1;" vertex="1" parent="1">
          <mxGeometry x="2280" y="1320" width="250" height="120" as="geometry" />
        </mxCell>
        <mxCell id="TmPfqhk6OB8MxjeGNP_D-3" value="" style="group" connectable="0" vertex="1" parent="1">
          <mxGeometry x="3020" y="1950" width="300" height="140" as="geometry" />
        </mxCell>
        <mxCell id="TmPfqhk6OB8MxjeGNP_D-1" value="&lt;font style=&quot;font-size: 24px;&quot;&gt;&lt;b&gt;Email Provider&lt;/b&gt;&lt;/font&gt;" style="text;html=1;strokeColor=none;fillColor=none;align=center;verticalAlign=middle;whiteSpace=wrap;rounded=0;" vertex="1" parent="TmPfqhk6OB8MxjeGNP_D-3">
          <mxGeometry width="300" height="30" as="geometry" />
        </mxCell>
        <mxCell id="TmPfqhk6OB8MxjeGNP_D-2" value="Actor" style="shape=umlActor;verticalLabelPosition=bottom;verticalAlign=top;html=1;" vertex="1" parent="TmPfqhk6OB8MxjeGNP_D-3">
          <mxGeometry x="125" y="50" width="50" height="90" as="geometry" />
        </mxCell>
        <mxCell id="h0oqEOnupCe9x87afhEM-11" value="include" style="endArrow=open;endSize=12;dashed=1;html=1;rounded=0;exitX=0.5;exitY=0.5;exitDx=0;exitDy=0;exitPerimeter=0;entryX=0;entryY=0.5;entryDx=0;entryDy=0;" edge="1" parent="1" source="Jx6e97WFCLbA-RFkAt_U-1" target="qpTNAgfykR-I72aWOtrB-12">
          <mxGeometry width="160" relative="1" as="geometry">
            <mxPoint x="1550" y="1340" as="sourcePoint" />
            <mxPoint x="1870" y="1140" as="targetPoint" />
          </mxGeometry>
        </mxCell>
        <mxCell id="h0oqEOnupCe9x87afhEM-12" value="extend" style="endArrow=open;endSize=12;dashed=1;html=1;rounded=0;exitX=0;exitY=0.5;exitDx=0;exitDy=0;entryX=0.5;entryY=0.5;entryDx=0;entryDy=0;entryPerimeter=0;" edge="1" parent="1" source="qpTNAgfykR-I72aWOtrB-13" target="h0oqEOnupCe9x87afhEM-3">
          <mxGeometry width="160" relative="1" as="geometry">
            <mxPoint x="1760" y="945" as="sourcePoint" />
            <mxPoint x="2100" y="750" as="targetPoint" />
          </mxGeometry>
        </mxCell>
        <mxCell id="h0oqEOnupCe9x87afhEM-15" value="&lt;font style=&quot;font-size: 24px;&quot;&gt;&lt;b&gt;Book Flight&lt;br&gt;&lt;/b&gt;&lt;/font&gt;" style="ellipse;whiteSpace=wrap;html=1;" vertex="1" parent="1">
          <mxGeometry x="1870" y="1760" width="250" height="120" as="geometry" />
        </mxCell>
        <mxCell id="h0oqEOnupCe9x87afhEM-17" value="include" style="endArrow=open;endSize=12;dashed=1;html=1;rounded=0;entryX=0.011;entryY=0.436;entryDx=0;entryDy=0;exitX=1;exitY=0.5;exitDx=0;exitDy=0;entryPerimeter=0;" edge="1" parent="1" source="h0oqEOnupCe9x87afhEM-15" target="qpTNAgfykR-I72aWOtrB-5">
          <mxGeometry width="160" relative="1" as="geometry">
            <mxPoint x="2020" y="1495" as="sourcePoint" />
            <mxPoint x="2360" y="1300" as="targetPoint" />
          </mxGeometry>
        </mxCell>
        <mxCell id="h0oqEOnupCe9x87afhEM-18" value="include" style="endArrow=open;endSize=12;dashed=1;html=1;rounded=0;entryX=0;entryY=0.5;entryDx=0;entryDy=0;" edge="1" parent="1" target="qpTNAgfykR-I72aWOtrB-3">
          <mxGeometry width="160" relative="1" as="geometry">
            <mxPoint x="2120" y="1820" as="sourcePoint" />
            <mxPoint x="2260" y="1690" as="targetPoint" />
          </mxGeometry>
        </mxCell>
        <mxCell id="h0oqEOnupCe9x87afhEM-20" value="include" style="endArrow=open;endSize=12;dashed=1;html=1;rounded=0;entryX=0;entryY=0.5;entryDx=0;entryDy=0;exitX=1;exitY=0.5;exitDx=0;exitDy=0;" edge="1" parent="1" source="h0oqEOnupCe9x87afhEM-15" target="qpTNAgfykR-I72aWOtrB-7">
          <mxGeometry width="160" relative="1" as="geometry">
            <mxPoint x="2170" y="1750" as="sourcePoint" />
            <mxPoint x="2283" y="1582" as="targetPoint" />
          </mxGeometry>
        </mxCell>
        <mxCell id="h0oqEOnupCe9x87afhEM-22" value="" style="endArrow=none;html=1;rounded=0;exitX=0.5;exitY=0.5;exitDx=0;exitDy=0;exitPerimeter=0;entryX=0;entryY=0.5;entryDx=0;entryDy=0;" edge="1" parent="1" source="Jx6e97WFCLbA-RFkAt_U-1" target="h0oqEOnupCe9x87afhEM-15">
          <mxGeometry width="50" height="50" relative="1" as="geometry">
            <mxPoint x="1950" y="1690" as="sourcePoint" />
            <mxPoint x="2000" y="1640" as="targetPoint" />
          </mxGeometry>
        </mxCell>
        <mxCell id="h0oqEOnupCe9x87afhEM-24" value="extend" style="endArrow=open;endSize=12;dashed=1;html=1;rounded=0;exitX=0;exitY=0.5;exitDx=0;exitDy=0;entryX=1;entryY=0.5;entryDx=0;entryDy=0;" edge="1" parent="1" source="qpTNAgfykR-I72aWOtrB-6" target="h0oqEOnupCe9x87afhEM-15">
          <mxGeometry width="160" relative="1" as="geometry">
            <mxPoint x="1880" y="910" as="sourcePoint" />
            <mxPoint x="1580" y="1355" as="targetPoint" />
          </mxGeometry>
        </mxCell>
        <mxCell id="tXV7__Rr71HzkZZIRs15-1" value="&lt;font style=&quot;font-size: 24px;&quot;&gt;&lt;b&gt;Browse Passenger List&lt;br&gt;&lt;/b&gt;&lt;/font&gt;" style="ellipse;whiteSpace=wrap;html=1;" vertex="1" parent="1">
          <mxGeometry x="1860" y="2185" width="250" height="120" as="geometry" />
        </mxCell>
        <mxCell id="TmPfqhk6OB8MxjeGNP_D-4" value="" style="group" connectable="0" vertex="1" parent="1">
          <mxGeometry x="1420" y="1530" width="300" height="140" as="geometry" />
        </mxCell>
        <mxCell id="qpTNAgfykR-I72aWOtrB-2" value="&lt;font style=&quot;font-size: 24px;&quot;&gt;&lt;b&gt;User (Registered)&lt;/b&gt;&lt;/font&gt;" style="text;html=1;strokeColor=none;fillColor=none;align=center;verticalAlign=middle;whiteSpace=wrap;rounded=0;" vertex="1" parent="TmPfqhk6OB8MxjeGNP_D-4">
          <mxGeometry width="300" height="30" as="geometry" />
        </mxCell>
        <mxCell id="Jx6e97WFCLbA-RFkAt_U-1" value="Actor" style="shape=umlActor;verticalLabelPosition=bottom;verticalAlign=top;html=1;" vertex="1" parent="TmPfqhk6OB8MxjeGNP_D-4">
          <mxGeometry x="125" y="50" width="50" height="90" as="geometry" />
        </mxCell>
        <mxCell id="h0oqEOnupCe9x87afhEM-1" value="" style="group" connectable="0" vertex="1" parent="1">
          <mxGeometry x="1420" y="1250" width="300" height="140" as="geometry" />
        </mxCell>
        <mxCell id="h0oqEOnupCe9x87afhEM-2" value="&lt;font style=&quot;font-size: 24px;&quot;&gt;&lt;b&gt;User (Guest)&lt;/b&gt;&lt;/font&gt;" style="text;html=1;strokeColor=none;fillColor=none;align=center;verticalAlign=middle;whiteSpace=wrap;rounded=0;" vertex="1" parent="h0oqEOnupCe9x87afhEM-1">
          <mxGeometry width="300" height="30" as="geometry" />
        </mxCell>
        <mxCell id="h0oqEOnupCe9x87afhEM-3" value="Actor" style="shape=umlActor;verticalLabelPosition=bottom;verticalAlign=top;html=1;" vertex="1" parent="h0oqEOnupCe9x87afhEM-1">
          <mxGeometry x="125" y="50" width="50" height="90" as="geometry" />
        </mxCell>
        <mxCell id="h0oqEOnupCe9x87afhEM-8" style="edgeStyle=orthogonalEdgeStyle;rounded=0;orthogonalLoop=1;jettySize=auto;html=1;exitX=0.5;exitY=0;exitDx=0;exitDy=0;" edge="1" parent="1" source="qpTNAgfykR-I72aWOtrB-2" target="h0oqEOnupCe9x87afhEM-3">
          <mxGeometry relative="1" as="geometry" />
        </mxCell>
        <mxCell id="tXV7__Rr71HzkZZIRs15-18" value="" style="group" connectable="0" vertex="1" parent="1">
          <mxGeometry x="1420" y="2150" width="300" height="140" as="geometry" />
        </mxCell>
        <mxCell id="tXV7__Rr71HzkZZIRs15-19" value="&lt;font style=&quot;font-size: 24px;&quot;&gt;&lt;b&gt;Airline Agent&lt;/b&gt;&lt;/font&gt;" style="text;html=1;strokeColor=none;fillColor=none;align=center;verticalAlign=middle;whiteSpace=wrap;rounded=0;" vertex="1" parent="tXV7__Rr71HzkZZIRs15-18">
          <mxGeometry width="300" height="30" as="geometry" />
        </mxCell>
        <mxCell id="tXV7__Rr71HzkZZIRs15-20" value="Actor" style="shape=umlActor;verticalLabelPosition=bottom;verticalAlign=top;html=1;" vertex="1" parent="tXV7__Rr71HzkZZIRs15-18">
          <mxGeometry x="125" y="50" width="50" height="90" as="geometry" />
        </mxCell>
        <mxCell id="tXV7__Rr71HzkZZIRs15-21" value="" style="endArrow=none;html=1;rounded=0;exitX=0.5;exitY=0.5;exitDx=0;exitDy=0;exitPerimeter=0;entryX=0;entryY=0.5;entryDx=0;entryDy=0;" edge="1" parent="1" source="tXV7__Rr71HzkZZIRs15-20" target="tXV7__Rr71HzkZZIRs15-1">
          <mxGeometry width="50" height="50" relative="1" as="geometry">
            <mxPoint x="2090" y="2070" as="sourcePoint" />
            <mxPoint x="2140" y="2020" as="targetPoint" />
          </mxGeometry>
        </mxCell>
        <mxCell id="AuM-m3K3Xpf_MELs6iGB-1" value="" style="group" connectable="0" vertex="1" parent="1">
          <mxGeometry x="1420" y="1880" width="300" height="140" as="geometry" />
        </mxCell>
        <mxCell id="AuM-m3K3Xpf_MELs6iGB-2" value="&lt;font style=&quot;font-size: 24px;&quot;&gt;&lt;b&gt;Airline Agent&lt;/b&gt;&lt;/font&gt;" style="text;html=1;strokeColor=none;fillColor=none;align=center;verticalAlign=middle;whiteSpace=wrap;rounded=0;" vertex="1" parent="AuM-m3K3Xpf_MELs6iGB-1">
          <mxGeometry width="300" height="30" as="geometry" />
        </mxCell>
        <mxCell id="AuM-m3K3Xpf_MELs6iGB-3" value="Actor" style="shape=umlActor;verticalLabelPosition=bottom;verticalAlign=top;html=1;" vertex="1" parent="AuM-m3K3Xpf_MELs6iGB-1">
          <mxGeometry x="125" y="50" width="50" height="90" as="geometry" />
        </mxCell>
        <mxCell id="d5xexayiUSEX90QML3aE-3" value="&lt;font style=&quot;font-size: 24px;&quot;&gt;&lt;b&gt;Manage Flight&lt;br&gt;&lt;/b&gt;&lt;/font&gt;" style="ellipse;whiteSpace=wrap;html=1;" vertex="1" parent="1">
          <mxGeometry x="2615" y="870" width="250" height="120" as="geometry" />
        </mxCell>
        <mxCell id="d5xexayiUSEX90QML3aE-4" value="&lt;font style=&quot;font-size: 24px;&quot;&gt;&lt;b&gt;Manage Crew&lt;br&gt;&lt;/b&gt;&lt;/font&gt;" style="ellipse;whiteSpace=wrap;html=1;" vertex="1" parent="1">
          <mxGeometry x="2615" y="1030" width="250" height="120" as="geometry" />
        </mxCell>
        <mxCell id="d5xexayiUSEX90QML3aE-5" value="&lt;font style=&quot;font-size: 24px;&quot;&gt;&lt;b&gt;Manage Flight&lt;br&gt;&lt;/b&gt;&lt;/font&gt;" style="ellipse;whiteSpace=wrap;html=1;" vertex="1" parent="1">
          <mxGeometry x="2615" y="1350" width="250" height="120" as="geometry" />
        </mxCell>
        <mxCell id="d5xexayiUSEX90QML3aE-6" value="&lt;font style=&quot;font-size: 24px;&quot;&gt;&lt;b&gt;Manage Aircraft&lt;br&gt;&lt;/b&gt;&lt;/font&gt;" style="ellipse;whiteSpace=wrap;html=1;" vertex="1" parent="1">
          <mxGeometry x="2615" y="1190" width="250" height="120" as="geometry" />
        </mxCell>
        <mxCell id="d5xexayiUSEX90QML3aE-8" value="&lt;font style=&quot;font-size: 24px;&quot;&gt;&lt;b&gt;Display&lt;br&gt;Bookings&lt;br&gt;&lt;/b&gt;&lt;/font&gt;" style="ellipse;whiteSpace=wrap;html=1;" vertex="1" parent="1">
          <mxGeometry x="2615" y="1510" width="250" height="120" as="geometry" />
        </mxCell>
        <mxCell id="d5xexayiUSEX90QML3aE-17" value="" style="group" connectable="0" vertex="1" parent="1">
          <mxGeometry x="2970" y="1130" width="300" height="140" as="geometry" />
        </mxCell>
        <mxCell id="d5xexayiUSEX90QML3aE-18" value="&lt;span style=&quot;font-size: 24px;&quot;&gt;&lt;b&gt;Admin&lt;/b&gt;&lt;/span&gt;" style="text;html=1;strokeColor=none;fillColor=none;align=center;verticalAlign=middle;whiteSpace=wrap;rounded=0;" vertex="1" parent="d5xexayiUSEX90QML3aE-17">
          <mxGeometry width="300" height="30" as="geometry" />
        </mxCell>
        <mxCell id="d5xexayiUSEX90QML3aE-19" value="Actor" style="shape=umlActor;verticalLabelPosition=bottom;verticalAlign=top;html=1;" vertex="1" parent="d5xexayiUSEX90QML3aE-17">
          <mxGeometry x="125" y="50" width="50" height="90" as="geometry" />
        </mxCell>
        <mxCell id="d5xexayiUSEX90QML3aE-21" value="" style="endArrow=none;html=1;rounded=0;exitX=1;exitY=0.5;exitDx=0;exitDy=0;entryX=0.5;entryY=0.5;entryDx=0;entryDy=0;entryPerimeter=0;" edge="1" parent="1" source="d5xexayiUSEX90QML3aE-4" target="d5xexayiUSEX90QML3aE-19">
          <mxGeometry width="50" height="50" relative="1" as="geometry">
            <mxPoint x="3235.0000000000005" y="1330.0000000000002" as="sourcePoint" />
            <mxPoint x="3475" y="1220" as="targetPoint" />
          </mxGeometry>
        </mxCell>
        <mxCell id="d5xexayiUSEX90QML3aE-26" value="" style="endArrow=none;html=1;rounded=0;exitX=1;exitY=0.5;exitDx=0;exitDy=0;entryX=0.5;entryY=0.5;entryDx=0;entryDy=0;entryPerimeter=0;" edge="1" parent="1" source="d5xexayiUSEX90QML3aE-8" target="d5xexayiUSEX90QML3aE-19">
          <mxGeometry width="50" height="50" relative="1" as="geometry">
            <mxPoint x="3245" y="1340" as="sourcePoint" />
            <mxPoint x="3485" y="1235" as="targetPoint" />
          </mxGeometry>
        </mxCell>
        <mxCell id="Hrz6z3CFpAx0xcoye39q-4" value="" style="group" connectable="0" vertex="1" parent="1">
          <mxGeometry x="2245" y="2310" width="300" height="140" as="geometry" />
        </mxCell>
        <mxCell id="Hrz6z3CFpAx0xcoye39q-5" value="&lt;font style=&quot;font-size: 24px;&quot;&gt;&lt;b&gt;Bank&lt;/b&gt;&lt;/font&gt;" style="text;html=1;strokeColor=none;fillColor=none;align=center;verticalAlign=middle;whiteSpace=wrap;rounded=0;" vertex="1" parent="Hrz6z3CFpAx0xcoye39q-4">
          <mxGeometry width="300" height="30" as="geometry" />
        </mxCell>
        <mxCell id="Hrz6z3CFpAx0xcoye39q-6" value="Actor" style="shape=umlActor;verticalLabelPosition=bottom;verticalAlign=top;html=1;" vertex="1" parent="Hrz6z3CFpAx0xcoye39q-4">
          <mxGeometry x="125" y="50" width="50" height="90" as="geometry" />
        </mxCell>
        <mxCell id="Hrz6z3CFpAx0xcoye39q-8" value="" style="endArrow=none;html=1;rounded=0;exitX=0.5;exitY=0.5;exitDx=0;exitDy=0;exitPerimeter=0;entryX=0.5;entryY=1;entryDx=0;entryDy=0;" edge="1" parent="1" source="Hrz6z3CFpAx0xcoye39q-6" target="qpTNAgfykR-I72aWOtrB-7">
          <mxGeometry width="50" height="50" relative="1" as="geometry">
            <mxPoint x="2300" y="2340" as="sourcePoint" />
            <mxPoint x="2350" y="2290" as="targetPoint" />
          </mxGeometry>
        </mxCell>
        <mxCell id="Hrz6z3CFpAx0xcoye39q-9" value="" style="endArrow=none;html=1;rounded=0;exitX=1.01;exitY=0.544;exitDx=0;exitDy=0;exitPerimeter=0;entryX=0.5;entryY=0.5;entryDx=0;entryDy=0;entryPerimeter=0;" edge="1" parent="1" source="d5xexayiUSEX90QML3aE-3" target="d5xexayiUSEX90QML3aE-19">
          <mxGeometry width="50" height="50" relative="1" as="geometry">
            <mxPoint x="3055" y="1110" as="sourcePoint" />
            <mxPoint x="3120" y="1230" as="targetPoint" />
          </mxGeometry>
        </mxCell>
        <mxCell id="Hrz6z3CFpAx0xcoye39q-10" value="" style="endArrow=none;html=1;rounded=0;entryX=0.5;entryY=0.5;entryDx=0;entryDy=0;entryPerimeter=0;" edge="1" parent="1" source="d5xexayiUSEX90QML3aE-6" target="d5xexayiUSEX90QML3aE-19">
          <mxGeometry width="50" height="50" relative="1" as="geometry">
            <mxPoint x="3055" y="1270" as="sourcePoint" />
            <mxPoint x="3105" y="1220" as="targetPoint" />
          </mxGeometry>
        </mxCell>
        <mxCell id="Hrz6z3CFpAx0xcoye39q-11" value="" style="endArrow=none;html=1;rounded=0;exitX=1;exitY=0.5;exitDx=0;exitDy=0;entryX=0.5;entryY=0.5;entryDx=0;entryDy=0;entryPerimeter=0;" edge="1" parent="1" source="d5xexayiUSEX90QML3aE-5" target="d5xexayiUSEX90QML3aE-19">
          <mxGeometry width="50" height="50" relative="1" as="geometry">
            <mxPoint x="2875" y="1256" as="sourcePoint" />
            <mxPoint x="3475" y="1225" as="targetPoint" />
          </mxGeometry>
        </mxCell>
        <mxCell id="Hrz6z3CFpAx0xcoye39q-12" value="" style="endArrow=none;html=1;rounded=0;entryX=0.53;entryY=0.448;entryDx=0;entryDy=0;entryPerimeter=0;exitX=1.004;exitY=0.438;exitDx=0;exitDy=0;exitPerimeter=0;" edge="1" parent="1" source="qpTNAgfykR-I72aWOtrB-8" target="TmPfqhk6OB8MxjeGNP_D-2">
          <mxGeometry width="50" height="50" relative="1" as="geometry">
            <mxPoint x="2990" y="2060" as="sourcePoint" />
            <mxPoint x="3040" y="2010" as="targetPoint" />
          </mxGeometry>
        </mxCell>
        <mxCell id="FDEKRvWGh2km-cfM4em1-1" value="" style="group" connectable="0" vertex="1" parent="1">
          <mxGeometry x="3040" y="870" width="300" height="140" as="geometry" />
        </mxCell>
        <mxCell id="FDEKRvWGh2km-cfM4em1-2" value="&lt;span style=&quot;font-size: 24px;&quot;&gt;&lt;b&gt;Database&lt;/b&gt;&lt;/span&gt;" style="text;html=1;strokeColor=none;fillColor=none;align=center;verticalAlign=middle;whiteSpace=wrap;rounded=0;" vertex="1" parent="FDEKRvWGh2km-cfM4em1-1">
          <mxGeometry width="300" height="30" as="geometry" />
        </mxCell>
        <mxCell id="FDEKRvWGh2km-cfM4em1-3" value="Actor" style="shape=umlActor;verticalLabelPosition=bottom;verticalAlign=top;html=1;" vertex="1" parent="FDEKRvWGh2km-cfM4em1-1">
          <mxGeometry x="125" y="50" width="50" height="90" as="geometry" />
        </mxCell>
        <mxCell id="FDEKRvWGh2km-cfM4em1-5" value="&lt;font style=&quot;font-size: 24px;&quot;&gt;&lt;b&gt;Login&lt;br&gt;&lt;/b&gt;&lt;/font&gt;" style="ellipse;whiteSpace=wrap;html=1;" vertex="1" parent="1">
          <mxGeometry x="2410" y="1110" width="250" height="120" as="geometry" />
        </mxCell>
      </root>
    </mxGraphModel>
  </diagram>
</mxfile>
